<?xml version="1.0" encoding="UTF-8"?>
<!DOCTYPE svg PUBLIC "-//W3C//DTD SVG 1.1//EN" "http://www.w3.org/Graphics/SVG/1.1/DTD/svg11.dtd">
<svg xmlns="http://www.w3.org/2000/svg" version="1.1" width="172px" height="58px" style="shape-rendering:geometricPrecision; text-rendering:geometricPrecision; image-rendering:optimizeQuality; fill-rule:evenodd; clip-rule:evenodd" xmlns:xlink="http://www.w3.org/1999/xlink">
<g><path style="opacity:0.963" fill="#3977de" d="M -0.5,30.5 C -0.5,26.5 -0.5,22.5 -0.5,18.5C 4.21111,9.48683 11.5444,6.48683 21.5,9.5C 22.4841,6.57186 22.8174,3.57186 22.5,0.5C 25.5,0.5 28.5,0.5 31.5,0.5C 31.6665,10.1724 31.4998,19.8391 31,29.5C 27.3365,38.8505 20.5032,42.3505 10.5,40C 5.38182,38.3734 1.71515,35.2067 -0.5,30.5 Z M 12.5,17.5 C 20.5581,17.3729 23.3915,21.0396 21,28.5C 16.7057,32.601 12.7057,32.2676 9,27.5C 8.33333,25.5 8.33333,23.5 9,21.5C 10.3756,20.2949 11.5423,18.9616 12.5,17.5 Z"/></g>
<g><path style="opacity:0.856" fill="#3977de" d="M 50.5,0.5 C 53.5,0.5 56.5,0.5 59.5,0.5C 59.5,2.16667 59.5,3.83333 59.5,5.5C 56.5,5.5 53.5,5.5 50.5,5.5C 50.5,3.83333 50.5,2.16667 50.5,0.5 Z"/></g>
<g><path style="opacity:0.967" fill="#3876dd" d="M 80.5,0.5 C 83.8333,0.5 87.1667,0.5 90.5,0.5C 90.6666,15.1705 90.4999,29.8371 90,44.5C 84.7289,56.1476 76.2289,59.3142 64.5,54C 61.93,51.9327 59.93,49.4327 58.5,46.5C 60.7776,44.7775 63.2776,43.4441 66,42.5C 68.1248,44.9029 70.7914,46.5696 74,47.5C 76.4993,46.9169 78.4993,45.5836 80,43.5C 80.4999,29.1705 80.6666,14.8372 80.5,0.5 Z"/></g>
<g><path style="opacity:0.932" fill="#3976dd" d="M 171.5,18.5 C 171.5,25.8333 171.5,33.1667 171.5,40.5C 168.5,40.5 165.5,40.5 162.5,40.5C 162.666,34.4908 162.499,28.4908 162,22.5C 157.755,15.9406 153.422,15.9406 149,22.5C 148.501,28.4908 148.334,34.4908 148.5,40.5C 145.5,40.5 142.5,40.5 139.5,40.5C 139.5,27.1667 139.5,13.8333 139.5,0.5C 142.5,0.5 145.5,0.5 148.5,0.5C 148.335,3.51838 148.502,6.51838 149,9.5C 159.083,6.29769 166.583,9.29769 171.5,18.5 Z"/></g>
<g><path style="opacity:0.958" fill="#3976de" d="M 49.5,8.5 C 62.2169,6.5614 69.5502,11.8947 71.5,24.5C 69.7126,37.2456 62.3792,42.4123 49.5,40C 39.0977,34.5898 36.2644,26.4231 41,15.5C 43.4389,12.5492 46.2722,10.2158 49.5,8.5 Z M 52.5,17.5 C 58.2104,16.8533 61.5437,19.3533 62.5,25C 60.6135,29.6037 57.2802,31.6037 52.5,31C 48.8759,28.8387 47.7093,25.672 49,21.5C 50.3756,20.2949 51.5423,18.9616 52.5,17.5 Z"/></g>
<g><path style="opacity:0.965" fill="#3977dd" d="M 108.5,8.5 C 118.845,6.42234 126.012,10.089 130,19.5C 130.5,26.4921 130.666,33.4921 130.5,40.5C 123.236,39.9335 115.903,39.7668 108.5,40C 97.546,34.0213 95.046,25.5213 101,14.5C 103.114,11.8792 105.614,9.87922 108.5,8.5 Z M 111.5,17.5 C 119.098,17.3341 121.931,21.0008 120,28.5C 115.568,32.7435 111.568,32.4101 108,27.5C 107.333,25.5 107.333,23.5 108,21.5C 109.376,20.2949 110.542,18.9616 111.5,17.5 Z"/></g>
</svg>
