<svg width="176" height="189" viewBox="0 0 176 189" fill="none" xmlns="http://www.w3.org/2000/svg">
<path d="M60.2626 183.11C49.7411 183.11 41.1772 174.549 41.1772 164.025C41.1772 153.5 49.7411 144.939 60.2626 144.939C70.7841 144.939 79.348 153.5 79.348 164.025C79.348 174.549 70.7841 183.11 60.2626 183.11ZM60.2626 146.684C52.7457 146.684 42.8057 152.864 42.8057 164.025C42.8057 171.542 49.3203 181.583 60.2626 181.583C67.824 182.165 77.7047 174.385 77.7047 164.025C77.7047 156.508 69.7144 145.884 60.2626 146.684ZM125.698 181.947C115.177 181.947 107.776 174.549 107.776 164.025C107.776 153.5 115.177 146.103 125.698 146.103C136.22 146.103 143.62 153.5 143.62 164.025C143.62 174.549 136.22 181.947 125.698 181.947ZM125.698 148.079C118.181 148.079 109.463 152.283 109.463 164.025C109.463 171.542 115.083 180.419 125.698 180.419C134.277 181.001 142.617 172.64 142.035 164.025C141.737 156.354 136.604 148.079 125.698 148.079Z" fill="#7F2FCA" stroke="#7F2FCA" stroke-width="10"/>
<path d="M77.0518 159.809C77.0518 159.267 77.4912 158.828 78.0333 158.828H108.788C109.33 158.828 109.77 159.267 109.77 159.809V159.809C109.77 160.351 109.33 160.791 108.788 160.791H78.0333C77.4912 160.791 77.0518 160.351 77.0518 159.809V159.809ZM42.7141 160.365C42.1319 160.484 41.5778 160.065 41.535 159.472L31.7916 24.4564C31.2789 17.3523 25.5294 11.7568 18.414 11.4371L5.9378 10.8765C5.4132 10.853 5 10.4208 5 9.89566V9.89566C5 9.33709 5.46534 8.89104 6.0234 8.91467L19.8241 9.49902C27.0355 9.80437 32.8747 15.463 33.4063 22.6613L43.4987 159.328C43.5351 159.822 43.1992 160.266 42.7141 160.365V160.365Z" fill="#7F2FCA" stroke="#7F2FCA" stroke-width="10"/>
<path d="M40.3382 124.939C39.8408 124.974 39.3958 124.631 39.3014 124.142V124.142C39.1893 123.56 39.6116 123.012 40.2024 122.972L141.679 116.044C150.896 115.415 158.482 108.555 160.033 99.4477L161.054 93.4506L164.719 71.9296L167.88 55.1781C170.256 42.5904 160.351 31.0456 147.548 31.4805L145.757 31.5413L102.588 31.2141L33.6462 31.5367C33.1036 31.5392 32.6624 31.1001 32.6624 30.5575V30.5575C32.6624 30.0167 33.1008 29.5782 33.6416 29.5782H150.466C162.929 29.5782 172.356 40.8534 170.15 53.1195L166.55 73.1283L161.472 101.352C159.851 110.365 152.315 117.125 143.18 117.762L40.3382 124.939Z" fill="#7F2FCA" stroke="#7F2FCA" stroke-width="10"/>
<path d="M90.1098 30.5856C89.6789 30.7327 89.2082 30.517 89.0383 30.0946L85.5255 21.3584C83.9519 17.4451 80.2422 14.8076 76.0291 14.607L70.7285 14.3546H64.969C60.0241 14.3546 55.6586 17.5826 54.2097 22.3105V22.3105L51.2866 29.9722C51.0964 30.4707 50.5616 30.7461 50.0454 30.6116V30.6116C49.4045 30.4446 49.0782 29.7316 49.3707 29.1374L54.3752 18.9713C56.1063 15.4549 59.6851 13.2277 63.6045 13.2277H76.6818C80.9643 13.2277 84.8319 15.7884 86.5039 19.7311L90.6216 29.4406C90.8158 29.8985 90.5805 30.4249 90.1098 30.5856V30.5856Z" fill="#7F2FCA" stroke="#7F2FCA" stroke-width="10"/>
<path d="M143.786 30.9146C143.584 30.8421 143.427 30.6813 143.358 30.478L137.651 13.524C136.816 11.0428 135.041 8.98776 132.708 7.79962V7.79962C131.346 7.10574 129.843 6.73326 128.314 6.71078L95.8234 6.23297C92.7405 6.18764 89.7192 7.09792 87.1745 8.83878L79.0733 14.381C78.7472 14.604 78.3163 14.5989 77.9956 14.3682V14.3682C77.4607 13.9834 77.4787 13.1815 78.0304 12.8211L87.779 6.45281C89.2302 5.50482 90.9261 5 92.6594 5H129.131C133.441 5 137.267 7.75782 138.629 11.8463L144.689 30.0322C144.874 30.588 144.337 31.1127 143.786 30.9146V30.9146Z" fill="#7F2FCA" stroke="#7F2FCA" stroke-width="10"/>
<path d="M55.1692 70.2156L160.738 62.8335" stroke="#7F2FCA" stroke-width="11" stroke-linecap="round"/>
</svg>
